<svg xmlns="http://www.w3.org/2000/svg" viewBox="0 0 1200 400"><defs><style>.cls-1,.cls-4{fill:#e17f41;}.cls-1{stroke:#e17f41;stroke-width:3px;}.cls-1,.cls-2{stroke-miterlimit:10;}.cls-2{fill:none;stroke:#f8f9fa;stroke-width:19px;}.cls-3{fill:#f8f9fa;}</style></defs><g id="glass"><rect class="cls-1" x="36.61" y="63.29" width="121.69" height="271.67"/><rect class="cls-1" x="152.03" y="121.72" width="93.38" height="213.23"/><ellipse class="cls-2" cx="148.31" cy="217.54" rx="54.5" ry="52.5" transform="translate(-81.33 346.32) rotate(-85)"/><rect class="cls-3" x="203.55" y="251.79" width="42.25" height="113.51" rx="11.95" transform="translate(-145.76 216.6) rotate(-40)"/><path class="cls-4" d="M306.37,180.4h-15.3V100.55H263.9v-13h69.57v13h-27.1Z"/><path class="cls-4" d="M373.72,87.6q12,0,19.84,3a23,23,0,0,1,11.67,8.92q3.84,6,3.85,15.11a25,25,0,0,1-2.54,11.71,24.23,24.23,0,0,1-6.67,8,36.17,36.17,0,0,1-8.82,5l26.34,41.07h-17.2l-22.47-37.13H362.86V180.4H347.63V87.6Zm-1,12.76h-9.84v30.28H373.4q10.55,0,15.33-3.94t4.79-11.62q0-8-5.11-11.36T372.7,100.36Z"/><path class="cls-4" d="M488.17,180.4l-9.08-25.77H443.61l-9.08,25.77H418.47L453,87.22h16.89l34.46,93.18Zm-13-38.78-8.82-25.46c-.34-1.1-.82-2.64-1.46-4.63s-1.27-4-1.9-6.16-1.17-3.89-1.59-5.33c-.42,1.74-.94,3.67-1.56,5.81s-1.2,4.15-1.77,6-1,3.31-1.3,4.28l-8.89,25.46Z"/><path class="cls-4" d="M594.05,180.4H575.32l-45.45-74.08h-.57q.26,3.75.48,8c.14,2.82.27,5.7.38,8.67s.2,5.94.28,9V180.4H516.6V87.6h18.6l45.39,73.57H581c-.08-2.16-.19-4.64-.31-7.43s-.25-5.68-.35-8.66-.18-5.87-.23-8.67V87.6h13.91Z"/><path class="cls-4" d="M672,155.14a24.79,24.79,0,0,1-4,14.22,25.43,25.43,0,0,1-11.55,9.14,46.06,46.06,0,0,1-17.93,3.17,79.49,79.49,0,0,1-9.71-.57,62.54,62.54,0,0,1-8.73-1.68,47,47,0,0,1-7.52-2.7V162.37a103.79,103.79,0,0,0,12.69,4.48,51.57,51.57,0,0,0,14.22,2,26.37,26.37,0,0,0,9.78-1.56,12.2,12.2,0,0,0,5.81-4.44,11.87,11.87,0,0,0,1.93-6.76,10.89,10.89,0,0,0-2.22-7,21.15,21.15,0,0,0-6.7-5.24,113,113,0,0,0-11.26-5.14,64.36,64.36,0,0,1-8.7-4.13,35.06,35.06,0,0,1-7.36-5.52,23.58,23.58,0,0,1-5.15-7.55,25.46,25.46,0,0,1-1.9-10.22,23.46,23.46,0,0,1,3.81-13.49,24.1,24.1,0,0,1,10.69-8.6,40.26,40.26,0,0,1,16.1-3A58.31,58.31,0,0,1,658,87.82a76.14,76.14,0,0,1,12.66,4.29l-4.82,12.31a95.47,95.47,0,0,0-11.11-3.78,42.18,42.18,0,0,0-10.92-1.43,20.65,20.65,0,0,0-8.19,1.46,11.34,11.34,0,0,0-5.11,4.13,11.13,11.13,0,0,0-1.74,6.22,11.26,11.26,0,0,0,2,6.86,18.27,18.27,0,0,0,6.22,5q4.21,2.3,10.88,5.08a81.29,81.29,0,0,1,13,6.66,25.44,25.44,0,0,1,8.22,8.35A23.71,23.71,0,0,1,672,155.14Z"/><path class="cls-4" d="M716.87,87.6q18,0,26.22,7.36t8.25,20.7a34.66,34.66,0,0,1-1.87,11.39,24.68,24.68,0,0,1-6.13,9.62,29.46,29.46,0,0,1-11.2,6.6A52.58,52.58,0,0,1,715,145.68h-9.9V180.4H689.9V87.6Zm-1,12.69H705.13v32.63h8.32a38.31,38.31,0,0,0,12.15-1.68,14.76,14.76,0,0,0,7.59-5.36,16.44,16.44,0,0,0,2.6-9.65q0-8.07-4.86-12T715.86,100.29Z"/><path class="cls-4" d="M827.32,180.4l-9.07-25.77H782.76l-9.08,25.77H757.62l34.54-93.18H809l34.47,93.18Zm-13-38.78-8.82-25.46q-.51-1.65-1.46-4.63c-.64-2-1.27-4-1.91-6.16s-1.16-3.89-1.58-5.33c-.43,1.74-.95,3.67-1.56,5.81s-1.21,4.15-1.78,6-1,3.31-1.3,4.28L787,141.62Z"/><path class="cls-4" d="M881.85,87.6q12,0,19.84,3a23,23,0,0,1,11.68,8.92q3.82,6,3.84,15.11a25,25,0,0,1-2.54,11.71,24.23,24.23,0,0,1-6.67,8,36.17,36.17,0,0,1-8.82,5l26.34,41.07h-17.2l-22.47-37.13H871V180.4H855.76V87.6Zm-1,12.76H871v30.28h10.54q10.54,0,15.33-3.94t4.79-11.62q0-8-5.11-11.36T880.83,100.36Z"/><path class="cls-4" d="M991.35,180.4H938.79V87.6h52.56v12.82H954v25.2h35v12.76H954v29.14h37.33Z"/><path class="cls-4" d="M1088.78,180.4h-18.72l-45.45-74.08H1024c.17,2.5.32,5.16.47,8s.28,5.7.38,8.67.2,5.94.29,9V180.4h-13.84V87.6h18.6l45.39,73.57h.44c-.09-2.16-.19-4.64-.32-7.43s-.24-5.68-.35-8.66-.18-5.87-.22-8.67V87.6h13.9Z"/><path class="cls-4" d="M1145.34,180.4H1130V100.55h-27.17v-13h69.57v13h-27.1Z"/><path class="cls-4" d="M575.26,213.45V273.5a36.36,36.36,0,0,1-4.1,17.39,29.48,29.48,0,0,1-12.34,12.16q-8.27,4.47-20.76,4.47-17.84,0-27.17-9.36t-9.33-24.91v-59.8h15.3v58.46q0,11.63,5.46,17.14t16.31,5.52q7.43,0,12.16-2.63a16.13,16.13,0,0,0,7-7.74,30.23,30.23,0,0,0,2.28-12.35v-58.4Z"/><path class="cls-4" d="M631.12,306.25h-15.3V226.4H588.65v-13h69.57v13h-27.1Z"/><path class="cls-4" d="M729.88,306.25l-9.07-25.77H685.32l-9.07,25.77H660.19l34.53-93.18H711.6l34.47,93.18Zm-13-38.78L708.05,242q-.51-1.65-1.46-4.64c-.64-2-1.27-4-1.91-6.15s-1.16-3.9-1.58-5.34c-.43,1.74-.94,3.67-1.56,5.81s-1.2,4.15-1.77,6-1,3.31-1.31,4.29l-8.88,25.45Z"/><path class="cls-4" d="M831.51,306.25H816.28V264.36H773.56v41.89H758.32v-92.8h15.24v38h42.72v-38h15.23Z"/></g></svg>